# xmcd
#
# Track frame offsets: 
#        150
#        12777
#        24915
#        30487
#        41092
#        51212
#        65157
#        73924
#        84541
#        96844
#        107385
#        118617
#        126318
#        135299
#        148903
#        159294
#        172179
#        184704
#        196802
#        208865
#
# Disc length: 2947 seconds
#
# Revision: 1
# Processed by: cddbd v1.5.2PL0 Copyright (c) Steve Scherf et al.
# Submitted via: ExactAudioCopy v0.99pb5
#
DISCID=1a0b8114
DTITLE=Various Artist - Vintage Bluegrass Masters
DYEAR=2006
DGENRE=Bluegrass
TTITLE0=The Delmore Brothers - Going Back To The Blue Ridge Mountains
TTITLE1=The Delmore Brothers - I´M Lonesome Without You
TTITLE2=The Delmore Brothers - Cotton Eyed Joe
TTITLE3=The Delmore Brothers - Death Is Only A Dream
TTITLE4=The Delmore Brothers - The Girl Behind The Bar
TTITLE5=The Delmore Brothers - The Little Glass Of Wine
TTITLE6=Jimmy Martin and The Osborne Brothers - She´S Just A Cute Thing
TTITLE7=Jimmy Martin and The Osborne Brothers - Blue Eyed Darling
TTITLE8=Reno and Smiley - Crazy Fingers Blue
TTITLE9=Reno and Smiley - I´M Gone, Long Gone
TTITLE10=Reno and Smiley - There´S Another Baby Waiting For Me Down The 
TTITLE10=Line
TTITLE11=Reno and Smiley - Tennessee Cut-Up Breakdown
TTITLE12=Flatt and Scruggs - Foggy Mountain Special
TTITLE13=Flatt and Scruggs - Earl´S Breakdown
TTITLE14=Flatt and Scruggs - Get  In Line Brother
TTITLE15=Flatt and Scruggs - Doin´ My Time
TTITLE16=Flatt and Scruggs - Pike County Breakdown
TTITLE17=Flatt and Scruggs - Roll In My Sweet Baby´S Arms
TTITLE18=Flatt and Scruggs - Foggy Mountain Breakdown
TTITLE19=Flatt and Scruggs - Don´T Get Above Your Raisin´
EXTD=
EXTT0=
EXTT1=
EXTT2=
EXTT3=
EXTT4=
EXTT5=
EXTT6=
EXTT7=
EXTT8=
EXTT9=
EXTT10=
EXTT11=
EXTT12=
EXTT13=
EXTT14=
EXTT15=
EXTT16=
EXTT17=
EXTT18=
EXTT19=
PLAYORDER=
